# xmcd CD database file
#
# Track frame offsets:
#	151
#	17278
#	42455
#	69844
#	94118
#	119117
#	140861
#	173745
#	195552
#	229398
#
# Disc length: 3677 seconds
#
# Revision: 0
# Processed by: cddbd v1.5.2PL0 Copyright (c) Steve Scherf et al.
# Submitted via: CDex 1.51
#
DISCID=8a0e5b0a
DTITLE=Led Bib - Arboretum
DYEAR=2005
DGENRE=Jazz
TTITLE0=Clatter
TTITLE1=Work prospects
TTITLE2=Joyous Hangover
TTITLE3=Flashing Indicator
TTITLE4=Aural Assault
TTITLE5=lere Gymnopedie
TTITLE6=Post Invasion Plan
TTITLE7=Depts
TTITLE8=Gnossienne No 1
TTITLE9=Memoires Can's Wait
EXTD=YEAR: 2005
EXTT0=
EXTT1=
EXTT2=
EXTT3=
EXTT4=
EXTT5=
EXTT6=
EXTT7=
EXTT8=
EXTT9=
PLAYORDER=
